HIERARCHY
ROOT Hips
{
	OFFSET 0.000000 0.000000 0.000000
	CHANNELS 6 Xposition Yposition Zposition Yrotation Xrotation Zrotation
	JOINT Chest
	{
		OFFSET 0.000000 -0.009281 11.569106
		CHANNELS 3 Yrotation Xrotation Zrotation
		JOINT Chest2
		{
			OFFSET -0.000000 0.016865 9.269641
			CHANNELS 3 Yrotation Xrotation Zrotation
			JOINT Chest3
			{
				OFFSET -0.000000 0.000001 8.374491
				CHANNELS 3 Yrotation Xrotation Zrotation
				JOINT Chest4
				{
					OFFSET -0.000000 0.000001 8.374493
					CHANNELS 3 Yrotation Xrotation Zrotation
					JOINT Neck
					{
						OFFSET -0.000000 0.000002 12.152554
						CHANNELS 3 Yrotation Xrotation Zrotation
						JOINT Head
						{
							OFFSET -0.000000 0.040101 7.802319
							CHANNELS 3 Yrotation Xrotation Zrotation
							End Site
							{
								OFFSET -0.000000 0.020947 14.853096
							}
						}
					}
					JOINT RightCollar
					{
						OFFSET 2.894404 0.000001 6.791374
						CHANNELS 3 Yrotation Xrotation Zrotation
						JOINT RightShoulder
						{
							OFFSET 13.574684 0.000001 0.000000
							CHANNELS 3 Yrotation Xrotation Zrotation
							JOINT RightElbow
							{
								OFFSET 23.923903 0.000002 0.000000
								CHANNELS 3 Yrotation Xrotation Zrotation
								JOINT RightWrist
								{
									OFFSET 19.846718 0.012767 0.000000
									CHANNELS 3 Yrotation Xrotation Zrotation
									End Site
									{
										OFFSET 14.973145 0.000001 0.000000
									}
								}
							}
						}
					}
					JOINT LeftCollar
					{
						OFFSET -2.894404 0.000001 6.791374
						CHANNELS 3 Yrotation Xrotation Zrotation
						JOINT LeftShoulder
						{
							OFFSET -13.574684 -0.000001 0.000000
							CHANNELS 3 Yrotation Xrotation Zrotation
							JOINT LeftElbow
							{
								OFFSET -23.923903 -0.000002 0.000000
								CHANNELS 3 Yrotation Xrotation Zrotation
								JOINT LeftWrist
								{
									OFFSET -19.846718 0.012763 0.000000
									CHANNELS 3 Yrotation Xrotation Zrotation
									End Site
									{
										OFFSET -14.973145 -0.000001 0.000000
									}
								}
							}
						}
					}
				}
			}
		}
	}
	JOINT RightHip
	{
		OFFSET 9.469263 0.004643 0.045487
		CHANNELS 3 Yrotation Xrotation Zrotation
		JOINT RightKnee
		{
			OFFSET 0.000000 0.002661 -40.478676
			CHANNELS 3 Yrotation Xrotation Zrotation
			JOINT RightAnkle
			{
				OFFSET 0.000000 0.049106 -35.224068
				CHANNELS 3 Yrotation Xrotation Zrotation
				JOINT RightToe
				{
					OFFSET -0.000001 12.539529 -6.151390
					CHANNELS 3 Yrotation Xrotation Zrotation
					End Site
					{
						OFFSET -0.000001 5.044994 -1.291870
					}
				}
			}
		}
	}
	JOINT LeftHip
	{
		OFFSET -9.469263 0.004641 0.045487
		CHANNELS 3 Yrotation Xrotation Zrotation
		JOINT LeftKnee
		{
			OFFSET 0.000000 0.002661 -40.478676
			CHANNELS 3 Yrotation Xrotation Zrotation
			JOINT LeftAnkle
			{
				OFFSET 0.000000 0.049106 -35.224068
				CHANNELS 3 Yrotation Xrotation Zrotation
				JOINT LeftToe
				{
					OFFSET -0.000001 12.539529 -6.151390
					CHANNELS 3 Yrotation Xrotation Zrotation
					End Site
					{
						OFFSET -0.000001 5.044994 -1.291870
					}
				}
			}
		}
	}
}
MOTION
Frames: 11
Frame Time: 0.016667
-76.656479 68.378586 82.892235 -0.660451 0.511611 -116.097629 -2.736938 -0.202113 -4.090350 -0.800355 0.349068 -1.223229 -0.800355 0.349068 -1.223220 -0.599569 0.263405 -0.916961 -1.715188 -17.636988 4.900364 -1.501709 3.399734 8.456689 9.116416 -3.666945 -5.628128 60.498257 -31.256998 -11.420758 22.758539 -78.060620 56.295252 -6.134835 9.460567 21.073891 -7.999753 -2.430116 -5.329313 -59.087475 -27.166427 14.134930 -77.504322 -56.790219 -4.212733 7.376373 22.021971 -40.224114 3.586264 2.177052 -17.162117 3.711701 -6.241778 -8.432603 0.761965 7.553329 1.358411 -0.748199 0.005454 -1.125635 -0.024489 5.522397 -1.848140 -3.512541 -15.889513 16.287124 5.271616 7.255645 5.283122 -1.597223 1.123052 0.116326 
-77.144836 68.238480 82.898842 -1.101843 0.240776 -115.955944 -2.918031 -0.742983 -4.483157 -0.828728 0.235368 -1.290848 -0.828728 0.235367 -1.290850 -0.621052 0.178277 -0.967822 -1.734013 -17.529235 5.131906 -1.452229 3.592883 8.880129 9.056459 -3.673979 -5.645794 60.512027 -31.317575 -11.335607 22.381343 -78.022426 56.369568 -5.926900 9.133955 20.984790 -8.084280 -2.457652 -5.402485 -59.333819 -27.198845 14.353434 -77.112112 -56.765282 -4.239238 7.892754 21.935503 -40.532883 3.794892 1.954349 -17.380373 3.874142 -6.327388 -8.041049 0.114581 7.348439 1.087428 -0.583234 0.115857 -1.225787 0.405387 6.796101 -2.087692 -3.989974 -18.643959 16.490488 5.571572 6.830033 5.310901 -1.842791 1.898968 0.126894 
-77.630318 68.092728 82.914719 -1.519293 0.027169 -115.810092 -3.124226 -1.262871 -4.849686 -0.866954 0.122745 -1.351725 -0.866953 0.122745 -1.351723 -0.649947 0.093976 -1.013625 -1.740361 -17.427629 5.348757 -1.384486 3.773852 9.281021 8.998194 -3.718243 -5.645648 60.610928 -31.348939 -11.316420 21.575041 -77.916448 56.817335 -5.702870 8.811975 21.010126 -8.153658 -2.501421 -5.451477 -59.569713 -27.259290 14.568402 -76.630652 -56.844977 -4.395489 8.413885 21.919588 -40.727318 3.959918 1.808457 -17.561569 4.032926 -6.469507 -7.782553 -0.558490 7.113317 0.903658 -0.425877 0.253120 -1.322177 0.719476 8.257975 -2.372375 -4.364057 -21.543762 16.662124 5.966768 5.906624 5.408025 -2.200346 2.882714 0.143331 
-78.348930 68.016594 82.926567 -0.689480 0.223827 -114.173804 -3.147927 -0.607066 -6.756161 -0.908218 0.012589 -1.404193 -0.908218 0.012589 -1.404198 -0.681139 0.011529 -1.053134 -1.738944 -17.324736 5.554444 -1.305588 3.956573 9.664427 8.956944 -3.736002 -5.620220 60.758084 -31.312849 -11.389404 20.904564 -77.772065 57.152247 -5.454204 8.493152 20.983226 -8.198050 -2.540955 -5.483928 -59.784912 -27.329289 14.801618 -76.148468 -56.953628 -4.592718 8.901541 21.911829 -40.883426 4.245497 3.075000 -19.101758 4.173738 -6.586562 -7.423486 -1.252033 6.660934 0.621225 -0.313199 0.559011 -1.446412 1.040855 11.304229 -4.228112 -4.582421 -24.116718 16.893718 6.019273 4.258312 4.471211 -3.974455 4.927640 0.953449 
-78.953911 67.912422 82.938171 -0.277416 0.300104 -113.180592 -3.277246 -0.377174 -7.998058 -0.947010 -0.094294 -1.444744 -0.947011 -0.094294 -1.444744 -0.710485 -0.068482 -1.083709 -1.743048 -17.225015 5.750308 -1.239895 4.133636 10.028114 8.918261 -3.712904 -5.603629 60.912153 -31.189485 -11.521524 20.742195 -77.652919 57.047034 -5.194168 8.186813 20.809483 -8.246328 -2.541587 -5.535817 -59.994722 -27.379846 15.113995 -75.720208 -57.022944 -4.786352 9.383198 21.859771 -41.028574 4.430959 3.843821 -20.055583 4.323018 -6.699020 -7.167653 -1.836553 6.333805 0.490332 -0.287023 0.737638 -1.580670 1.145295 13.954705 -5.659897 -4.947456 -26.905553 17.492996 6.653345 2.328361 3.772594 -6.053777 7.471811 1.328834 
-79.502831 67.812157 82.945023 0.035237 0.338631 -112.368121 -3.419252 -0.256030 -9.048679 -0.985766 -0.200176 -1.478481 -0.985767 -0.200176 -1.478476 -0.739813 -0.147749 -1.109184 -1.755535 -17.133958 5.940302 -1.191786 4.295022 10.378129 8.897499 -3.658163 -5.580463 61.032836 -31.018157 -11.667899 20.686401 -77.555575 56.884056 -4.935941 7.880766 20.541826 -8.311399 -2.490649 -5.595753 -60.188850 -27.398426 15.503723 -75.373815 -57.049459 -4.909012 9.882093 21.746414 -41.202747 4.562937 4.460987 -20.925854 4.478115 -6.804285 -7.094796 -2.226596 6.078500 0.679749 -0.387769 0.857029 -1.778527 1.128023 16.438570 -7.053439 -5.473211 -29.487183 18.420110 7.799391 0.019258 3.131906 -8.362442 10.285007 1.429261 
-79.968170 67.739342 82.889496 0.228774 0.410846 -111.646853 -3.627136 -0.211828 -10.008391 -1.029164 -0.305893 -1.509156 -1.029164 -0.305893 -1.509156 -0.772632 -0.226880 -1.132381 -1.776349 -17.059507 6.136336 -1.157744 4.425557 10.736164 8.890296 -3.585421 -5.555447 61.117141 -30.867729 -11.774601 20.581571 -77.504062 56.752838 -4.780084 7.607555 20.339514 -8.404196 -2.412534 -5.658925 -60.381099 -27.371766 15.977175 -75.020756 -57.097055 -5.015767 10.398598 21.586015 -41.394928 4.591710 4.928524 -21.840589 4.591396 -6.876311 -6.963372 -2.500187 5.779231 0.845508 -0.517056 1.021775 -1.890779 0.950464 18.670959 -8.336781 -6.094720 -31.656438 19.539021 9.310167 -2.385393 2.569299 -10.767748 12.939150 1.271186 
-80.155968 67.658211 82.837097 -0.117475 0.240532 -111.997651 -3.779256 -0.664112 -9.887781 -1.085463 -0.393362 -1.542946 -1.085464 -0.393363 -1.542946 -0.815094 -0.292284 -1.157903 -1.803917 -17.023632 6.350433 -1.132494 4.483862 11.124011 8.877157 -3.575633 -5.512558 61.189165 -30.790288 -11.799656 20.240593 -77.463190 56.810044 -4.687393 7.379169 20.284719 -8.483746 -2.404212 -5.644947 -60.579209 -27.329115 16.458528 -74.572279 -57.227136 -5.212991 10.917096 21.432488 -41.504092 4.707714 4.634660 -21.835258 4.659611 -6.878004 -6.690826 -2.700665 5.602495 0.849159 -0.611373 1.061381 -1.878533 1.248972 20.160966 -8.199839 -6.691462 -33.270517 20.530671 10.380416 -4.581678 2.289797 -12.541400 14.797729 0.590372 
-79.787193 67.496666 82.789688 -1.181460 -0.460868 -114.359804 -3.736696 -1.848482 -7.703624 -1.167975 -0.460491 -1.573786 -1.167975 -0.460491 -1.573793 -0.877171 -0.342364 -1.181219 -1.818656 -17.022573 6.569054 -1.084572 4.475998 11.523409 8.869001 -3.586695 -5.492582 61.307751 -30.794622 -11.786110 19.797696 -77.396009 56.927950 -4.569556 7.132466 20.334464 -8.541618 -2.437703 -5.641218 -60.747791 -27.249412 16.943032 -74.138370 -57.425888 -5.458351 11.429297 21.311708 -41.446855 5.119294 3.128173 -19.829262 4.659865 -6.785253 -6.518896 -2.781839 5.547654 0.689322 -0.617843 1.039916 -1.665383 2.599506 20.538082 -5.499172 -7.034092 -34.220487 21.043878 11.112282 -6.601925 2.205077 -13.724206 15.894880 -0.647708 
-79.253548 67.375198 82.753403 -1.781374 -1.012470 -116.857734 -3.677640 -2.572778 -5.406233 -1.279848 -0.510990 -1.609618 -1.279848 -0.510991 -1.609620 -0.961233 -0.379877 -1.208283 -1.826261 -17.045661 6.799522 -1.021452 4.421687 11.946143 8.864810 -3.559252 -5.481750 61.506598 -30.831201 -11.790912 19.666652 -77.323048 56.707577 -4.452875 6.850005 20.474520 -8.624310 -2.432483 -5.685190 -60.861739 -27.155121 17.469216 -73.824708 -57.592299 -5.657388 12.048000 21.218111 -41.280055 5.479936 1.965789 -17.512906 4.606817 -6.617259 -6.567331 -2.770494 5.686499 0.409912 -0.549593 0.859875 -1.249015 3.958993 20.931950 -2.364530 -7.079051 -34.417876 20.732416 11.529962 -8.049999 2.266039 -14.130430 16.218737 -1.626007 
-78.799622 67.344299 82.728966 -1.805930 -1.135215 -118.367643 -3.706523 -2.694505 -4.161666 -1.414219 -0.549237 -1.642367 -1.414219 -0.549238 -1.642371 -1.062141 -0.408134 -1.233049 -1.834608 -17.083005 7.040961 -0.957417 4.339841 12.388161 8.869638 -3.493401 -5.440654 61.785263 -30.810481 -11.847247 19.833073 -77.261911 56.163037 -4.369266 6.590701 20.662282 -8.696059 -2.368533 -5.710841 -60.893841 -27.138689 17.944563 -73.783002 -57.664152 -5.677668 12.772450 21.137784 -41.062520 5.631038 1.566676 -16.070440 4.504573 -6.406663 -6.795485 -2.645268 5.771716 0.163892 -0.476402 0.731858 -0.740807 4.643483 21.666296 -0.327038 -7.099194 -34.032985 19.841520 11.500278 -8.857048 2.534197 -13.633903 15.841849 -1.947137 
